HIERARCHY
ROOT root
{
	OFFSET 0.000000 0.000000 0.000000
	CHANNELS 6 Xposition Yposition Zposition Zrotation Yrotation Xrotation
	JOINT lhip
	{
		OFFSET 0.058581 -0.082280 -0.017664
		CHANNELS 3 Zrotation Yrotation Xrotation
		JOINT lknee
		{
			OFFSET 0.043451 -0.386469 0.008037
			CHANNELS 3 Zrotation Yrotation Xrotation
			JOINT lankle
			{
				OFFSET -0.014790 -0.426874 -0.037428
				CHANNELS 3 Zrotation Yrotation Xrotation
				JOINT ltoe
				{
					OFFSET 0.041054 -0.060286 0.122042
					CHANNELS 3 Zrotation Yrotation Xrotation
					End Site
					{
						OFFSET 0.000000 0.000000 0.000000
					}
				}
			}
		}
	}
	JOINT rhip
	{
		OFFSET -0.060310 -0.090513 -0.013543
		CHANNELS 3 Zrotation Yrotation Xrotation
		JOINT rknee
		{
			OFFSET -0.043257 -0.383688 -0.004843
			CHANNELS 3 Zrotation Yrotation Xrotation
			JOINT rankle
			{
				OFFSET 0.019056 -0.420046 -0.034562
				CHANNELS 3 Zrotation Yrotation Xrotation
				JOINT rtoe
				{
					OFFSET -0.034840 -0.062106 0.130323
					CHANNELS 3 Zrotation Yrotation Xrotation
					End Site
					{
						OFFSET 0.000000 0.000000 0.000000
					}
				}
			}
		}
	}
	JOINT lowerback
	{
		OFFSET 0.004439 0.124404 -0.038385
		CHANNELS 3 Zrotation Yrotation Xrotation
		JOINT upperback
		{
			OFFSET 0.004488 0.137956 0.026820
			CHANNELS 3 Zrotation Yrotation Xrotation
			JOINT chest
			{
				OFFSET -0.002265 0.056032 0.002855
				CHANNELS 3 Zrotation Yrotation Xrotation
				JOINT lowerneck
				{
					OFFSET -0.013390 0.211636 -0.033468
					CHANNELS 3 Zrotation Yrotation Xrotation
					JOINT upperneck
					{
						OFFSET 0.010113 0.088937 0.050410
						CHANNELS 3 Zrotation Yrotation Xrotation
						End Site
						{
							OFFSET 0.000000 0.000000 0.000000
						}
					}
				}
				JOINT lclavicle
				{
					OFFSET 0.071702 0.114000 -0.018898
					CHANNELS 3 Zrotation Yrotation Xrotation
					JOINT lshoulder
					{
						OFFSET 0.122921 0.045205 -0.019046
						CHANNELS 3 Zrotation Yrotation Xrotation
						JOINT lelbow
						{
							OFFSET 0.255332 -0.015649 -0.022946
							CHANNELS 3 Zrotation Yrotation Xrotation
							JOINT lwrist
							{
								OFFSET 0.265709 0.012698 -0.007375
								CHANNELS 3 Zrotation Yrotation Xrotation
								End Site
								{
									OFFSET 0.000000 0.000000 0.000000
								}
							}
						}
					}
				}
				JOINT rclavicle
				{
					OFFSET -0.082954 0.112472 -0.023707
					CHANNELS 3 Zrotation Yrotation Xrotation
					JOINT rshoulder
					{
						OFFSET -0.113228 0.046853 -0.008472
						CHANNELS 3 Zrotation Yrotation Xrotation
						JOINT relbow
						{
							OFFSET -0.260127 -0.014369 -0.031269
							CHANNELS 3 Zrotation Yrotation Xrotation
							JOINT rwrist
							{
								OFFSET -0.269108 0.006794 -0.006027
								CHANNELS 3 Zrotation Yrotation Xrotation
								End Site
								{
									OFFSET 0.000000 0.000000 0.000000
								}
							}
						}
					}
				}
			}
		}
	}
}
MOTION
Frames: 8
Frame Time: 0.033333
0.190557 -0.161647 0.986322 140.400053 4.898159 94.565801 25.066794 16.359133 7.717195 0.909742 13.486171 8.472358 -23.153893 4.891901 7.537698 0.000000 -0.000000 0.000000 5.584755 13.562364 -22.565867 1.198293 7.602123 23.471942 8.362579 9.030686 -4.817201 0.000000 -0.000000 0.000000 -10.330023 -11.752503 14.021703 0.435178 -22.972835 3.534732 -1.305901 -10.177669 -10.651522 -15.074599 53.097311 1.572421 -4.238087 28.792027 1.811587 17.940686 -61.156812 -28.115238 3.832690 -72.679902 -23.689510 12.160476 -30.354448 1.858226 24.383738 -41.828028 12.478894 2.428154 19.278767 -8.256493 24.813492 24.428458 -5.015081 -111.184592 42.879555 -71.810194 -65.289961 27.467578 -3.713709 
0.187153 -0.160794 0.987294 140.495961 4.678650 94.575095 24.589229 16.724025 7.566702 0.962398 13.743113 8.438542 -23.158317 4.477936 7.344730 0.000000 -0.000000 0.000000 5.234251 13.021100 -22.582511 1.001325 7.534497 23.257801 8.671982 9.460418 -4.546181 0.000000 -0.000000 0.000000 -10.043360 -11.687869 14.526412 0.435718 -22.862325 3.248419 -1.340635 -10.265111 -10.153516 -15.965472 53.314867 0.555757 -4.097431 28.649882 2.352724 18.717922 -60.071835 -28.978278 2.427010 -73.051574 -23.008813 11.933577 -29.986189 2.008261 23.719365 -41.116896 12.231197 1.564333 18.363319 -8.907113 26.079755 25.417998 -4.384411 -110.148469 43.720210 -71.978603 -65.580533 26.418777 -4.681789 
0.182069 -0.160304 0.988536 140.893393 4.469223 94.801152 24.213763 16.914144 7.121620 0.507186 14.436034 8.180225 -22.855997 4.424434 7.384299 0.000000 -0.000000 0.000000 4.565552 12.536030 -22.815783 0.950675 7.186206 22.727870 9.261527 9.668242 -3.918815 0.000000 -0.000000 0.000000 -9.825203 -11.500151 14.941419 0.444379 -22.769628 3.360468 -1.328205 -10.199712 -10.134025 -15.682535 52.962569 0.823437 -4.025864 28.606789 2.280512 17.784446 -60.391563 -28.074639 2.738444 -73.112764 -22.957020 11.892666 -29.068730 1.146835 22.188990 -39.880373 11.650402 1.791332 18.533404 -8.863349 26.259286 25.534211 -3.803140 -108.948730 43.553788 -71.939570 -64.890589 25.162864 -5.186749 
0.175206 -0.159967 0.989408 141.755474 4.211460 95.007331 23.864109 17.342304 6.483810 -0.042429 14.460015 7.744306 -22.552215 4.290205 7.709461 0.000000 -0.000000 0.000000 3.814327 11.570301 -23.187021 0.846057 6.540989 22.367326 9.796426 10.123057 -3.386361 0.000000 -0.000000 0.000000 -9.613436 -11.129856 15.856445 0.641747 -22.702326 3.246021 -1.021342 -9.901324 -10.078861 -15.569580 52.739678 0.998306 -3.866946 28.127444 2.538024 17.946924 -60.816521 -28.166236 2.102437 -72.732622 -22.605592 11.826604 -28.530478 0.750017 20.268851 -38.390713 11.658934 1.724213 18.667444 -9.204286 26.516727 25.358258 -4.020198 -107.944321 44.139730 -72.093924 -64.034731 23.291245 -6.010934 
0.167090 -0.160033 0.990572 142.836821 3.934864 95.286654 23.493905 17.444024 5.821373 -0.692708 13.992297 7.325945 -22.373477 3.485353 7.384892 0.000000 -0.000000 0.000000 2.859442 10.343210 -23.523336 1.062961 5.890319 21.796097 10.220654 10.186135 -2.635846 0.000000 -0.000000 0.000000 -9.089309 -10.851056 16.368979 0.762035 -22.569099 3.305364 -1.025936 -10.226392 -9.644674 -16.593443 52.750701 0.056113 -3.631632 27.872047 2.703977 18.092341 -59.899972 -28.403196 -0.447163 -72.847152 -20.534360 11.526318 -27.834197 1.370411 20.025538 -37.013836 10.392507 1.811079 19.238978 -8.564271 27.220131 26.662651 -3.753043 -106.447831 43.689286 -71.505024 -62.768637 20.972833 -6.873998 
0.157168 -0.160476 0.991462 144.253923 3.582820 95.668841 22.689360 17.290620 4.878169 -0.953593 12.816437 6.927972 -22.260513 2.393924 6.325478 0.000000 -0.000000 0.000000 1.629339 9.054277 -24.077093 1.270904 4.886564 21.305470 10.922652 10.152643 -2.049545 0.000000 -0.000000 0.000000 -8.683726 -10.408598 16.919023 0.835138 -22.375294 3.258159 -0.806329 -10.220351 -9.457455 -15.638361 52.290316 1.181660 -3.734784 27.922851 2.902055 16.993232 -60.090186 -27.390638 -2.114486 -72.599258 -19.160645 11.284467 -26.883509 0.708784 18.149532 -35.144499 9.969551 2.180434 19.834706 -8.143006 27.921639 27.184348 -3.171719 -104.664240 43.660407 -71.267636 -61.439406 19.112613 -7.541147 
0.145997 -0.161172 0.991909 145.984076 3.190840 95.927609 21.914494 17.209494 3.756463 -1.660011 12.839752 6.650140 -21.309242 1.660583 5.524183 0.000000 -0.000000 0.000000 0.379094 7.603156 -24.573597 1.392836 3.604961 20.985391 11.617883 10.022219 -1.321519 0.000000 -0.000000 0.000000 -8.244983 -9.801982 17.739499 1.140276 -22.154999 3.277853 -0.605206 -10.362409 -8.988364 -15.837577 51.773663 0.697776 -3.652355 27.310061 3.332284 16.599892 -59.625341 -26.956196 -4.234119 -72.457079 -17.456343 11.151169 -26.068557 0.834141 16.720019 -33.711505 9.321778 2.659001 20.190371 -8.222403 28.828808 28.335279 -2.395576 -102.693717 43.835640 -70.526537 -60.244259 17.213712 -8.020514 
0.133263 -0.162562 0.992054 148.108111 2.757849 96.215909 20.682615 16.929861 2.260195 -2.024800 12.601446 6.434037 -19.797195 1.153163 3.956512 0.000000 -0.000000 0.000000 -0.976625 6.126973 -25.036692 1.495026 2.424877 20.610378 12.293277 9.628577 -0.728686 0.000000 -0.000000 0.000000 -7.907640 -8.992928 18.368305 1.358201 -22.011001 3.513081 -0.396095 -9.998574 -8.689916 -14.490277 51.140644 2.159997 -3.351835 26.623293 3.212366 15.407195 -60.618372 -25.387773 -4.580530 -71.702229 -16.892916 10.358416 -24.687930 0.827367 17.031607 -32.640659 9.797294 3.355911 20.940976 -7.945407 29.849772 28.260773 -1.603089 -100.837220 43.736392 -70.111119 -59.222139 15.701526 -9.083180 
